<svg xmlns="http://www.w3.org/2000/svg" xmlns:xlink="http://www.w3.org/1999/xlink" width="15.454" height="26.833" viewBox="0 0 15.454 26.833">
  <defs>
    <linearGradient id="linear-gradient" x1="0.5" x2="0.5" y2="1" gradientUnits="objectBoundingBox">
      <stop offset="0" stop-color="#fe9d2b"/>
      <stop offset="0.183" stop-color="#fd9927"/>
      <stop offset="0.357" stop-color="#fa8e1b"/>
      <stop offset="0.51" stop-color="#f77e0b"/>
      <stop offset="0.83" stop-color="#ec411b"/>
      <stop offset="0.937" stop-color="#e71419"/>
      <stop offset="1" stop-color="#e50019"/>
    </linearGradient>
  </defs>
  <g id="Group_23007" data-name="Group 23007" transform="translate(-988.787 -192.682)">
    <g id="Group_22985" data-name="Group 22985" transform="translate(995.009 206.229)">
      <path id="Path_20784" data-name="Path 20784" d="M1024.7,280.7a4.476,4.476,0,0,1-1.045-5.593c1.675-3.528,4.669-4.472,6.764-6.55a7.436,7.436,0,0,0,.928-1.143,4.666,4.666,0,0,1-1.593,4.172C1025.794,274.868,1024.164,277.207,1024.7,280.7Z" transform="translate(-1023.113 -267.418)" fill="url(#linear-gradient)"/>
      <path id="Path_20785" data-name="Path 20785" d="M1035.133,292.938v0a16.735,16.735,0,0,0-3.769,3.27c-1.735,2.033-.746,5.391-.746,5.391C1030.1,298.264,1031.565,295.981,1035.133,292.938Z" transform="translate(-1029.028 -288.31)" fill="#030504" opacity="0.1"/>
    </g>
    <g id="Group_22986" data-name="Group 22986" transform="translate(991.493 198.606)">
      <path id="Path_20786" data-name="Path 20786" d="M1006.164,245.822a6.892,6.892,0,0,1-1.609-8.612c2.58-5.433,7.189-6.886,10.416-10.085a11.488,11.488,0,0,0,1.429-1.76,7.186,7.186,0,0,1-2.453,6.424C1007.844,236.836,1005.334,240.438,1006.164,245.822Z" transform="translate(-1003.716 -225.365)" fill="url(#linear-gradient)"/>
      <path id="Path_20787" data-name="Path 20787" d="M1022.223,264.66v0a25.761,25.761,0,0,0-5.8,5.035c-2.672,3.131-1.149,8.3-1.149,8.3C1014.481,272.86,1016.73,269.345,1022.223,264.66Z" transform="translate(-1012.823 -257.533)" fill="#030504" opacity="0.1"/>
    </g>
    <path id="Path_20788" data-name="Path 20788" d="M990.746,213.4a12.158,12.158,0,0,1,4.263-8.044s4.121-3.575,3.707-7.638a5.957,5.957,0,0,1-2.4,3.819c-2,1.219-2.878-5.932,0-8.857,0,0-3.754,2.519-4.826,9.751,0,0-1.641-.99-.584-3.826a13.63,13.63,0,0,0-2.063,6.262C988.471,207.933,989.988,208.835,990.746,213.4Z" fill="url(#linear-gradient)"/>
    <path id="Path_20789" data-name="Path 20789" d="M1002.881,267.418c-3.659,1.982-3.322,7.173-3.322,7.173a12.2,12.2,0,0,1,3.32-7.17Z" transform="translate(-8.813 -61.189)" fill="#030504" opacity="0.1"/>
  </g>
</svg>
